<?xml version="1.0" encoding="utf-8"?>
<!-- Generator: Adobe Illustrator 25.1.0, SVG Export Plug-In . SVG Version: 6.00 Build 0)  -->
<svg version="1.1" id="Layer_1" xmlns="http://www.w3.org/2000/svg" xmlns:xlink="http://www.w3.org/1999/xlink" x="0px" y="0px"
	 viewBox="0 0 841.9 595.3" style="enable-background:new 0 0 841.9 595.3;" xml:space="preserve">
<style type="text/css">
	.st0{fill:#2F2B3C;}
	.st1{fill:#EA525C;}
</style>
<path class="st0" d="M236.1,282.6h6.5v3.8c0.7-1.5,1.6-2.6,2.8-3.4c1.2-0.8,2.4-1.2,3.8-1.2c1,0,2,0.3,3.1,0.8l-2.4,6.5
	c-0.9-0.4-1.6-0.7-2.2-0.7c-1.2,0-2.1,0.7-3,2.2c-0.8,1.4-1.2,4.3-1.2,8.5l0,1.5v12.2h-7.5V282.6z"/>
<path class="st0" d="M260.7,270.2c1.3,0,2.5,0.5,3.4,1.4c1,1,1.4,2.1,1.4,3.5c0,1.4-0.5,2.5-1.4,3.5c-0.9,1-2.1,1.4-3.4,1.4
	c-1.3,0-2.5-0.5-3.4-1.5c-0.9-1-1.4-2.1-1.4-3.5c0-1.3,0.5-2.5,1.4-3.4C258.2,270.7,259.3,270.2,260.7,270.2z M256.9,282.6h7.6v30.2
	h-7.6V282.6z"/>
<path class="st0" d="M292.7,282.6h7.5v25.9c0,5.1-1,8.9-3.1,11.3c-2.8,3.3-6.9,4.9-12.5,4.9c-3,0-5.4-0.4-7.5-1.1
	c-2-0.7-3.7-1.8-5.1-3.3c-1.4-1.4-2.4-3.2-3.1-5.2h8.4c0.7,0.8,1.7,1.5,2.9,1.9s2.5,0.7,4.1,0.7c2,0,3.7-0.3,4.9-0.9
	c1.2-0.6,2.1-1.4,2.6-2.4s0.8-2.7,0.8-5.2c-1.3,1.3-2.7,2.3-4.2,2.9c-1.5,0.6-3.1,0.9-5,0.9c-4.1,0-7.5-1.5-10.3-4.4
	c-2.8-2.9-4.2-6.6-4.2-11.1c0-4.8,1.5-8.6,4.4-11.5c2.7-2.6,5.9-3.9,9.6-3.9c1.7,0,3.4,0.3,4.9,1c1.5,0.6,3.1,1.7,4.6,3.1V282.6z
	 M284.9,288.9c-2.4,0-4.4,0.8-5.9,2.4c-1.6,1.6-2.3,3.6-2.3,6c0,2.5,0.8,4.6,2.4,6.2c1.6,1.6,3.6,2.4,6,2.4c2.3,0,4.3-0.8,5.8-2.4
	c1.5-1.6,2.3-3.6,2.3-6.2c0-2.5-0.8-4.6-2.3-6.1C289.3,289.7,287.3,288.9,284.9,288.9z"/>
<path class="st0" d="M305.6,271h7.5v14.7c1.5-1.3,3-2.2,4.5-2.9c1.5-0.6,3-1,4.5-1c3,0,5.5,1,7.6,3.1c1.8,1.8,2.6,4.4,2.6,7.9v19.9
	h-7.5v-13.2c0-3.5-0.2-5.9-0.5-7.1c-0.3-1.2-0.9-2.2-1.7-2.8c-0.8-0.6-1.8-0.9-3-0.9c-1.5,0-2.9,0.5-4,1.5c-1.1,1-1.9,2.4-2.3,4.2
	c-0.2,0.9-0.3,3-0.3,6.2v12.1h-7.5V271z"/>
<path class="st0" d="M340.2,271.5h7.6v11.1h4.5v6.5h-4.5v23.7h-7.6v-23.7h-3.9v-6.5h3.9V271.5z"/>
<path class="st0" d="M378.6,282.6h7.6v30.2h-7.6v-3.2c-1.5,1.4-3,2.4-4.4,3c-1.5,0.6-3.1,0.9-4.8,0.9c-3.9,0-7.3-1.5-10.1-4.5
	c-2.8-3-4.3-6.8-4.3-11.3c0-4.7,1.4-8.5,4.1-11.5c2.8-3,6.1-4.5,10-4.5c1.8,0,3.5,0.3,5.1,1c1.6,0.7,3.1,1.7,4.4,3.1V282.6z
	 M370.7,288.8c-2.3,0-4.3,0.8-5.8,2.5c-1.5,1.7-2.3,3.8-2.3,6.4c0,2.6,0.8,4.8,2.4,6.4c1.6,1.7,3.5,2.5,5.8,2.5
	c2.4,0,4.3-0.8,5.9-2.5c1.6-1.7,2.3-3.8,2.3-6.5c0-2.6-0.8-4.8-2.3-6.4C375,289.6,373,288.8,370.7,288.8z"/>
<path class="st0" d="M395.8,270.2c1.3,0,2.5,0.5,3.4,1.4c1,1,1.4,2.1,1.4,3.5c0,1.4-0.5,2.5-1.4,3.5c-0.9,1-2.1,1.4-3.4,1.4
	c-1.3,0-2.5-0.5-3.4-1.5c-0.9-1-1.4-2.1-1.4-3.5c0-1.3,0.5-2.5,1.4-3.4C393.4,270.7,394.5,270.2,395.8,270.2z M392.1,282.6h7.6v30.2
	h-7.6V282.6z"/>
<path class="st0" d="M405.6,282.6h6.5v3.8c0.7-1.5,1.6-2.6,2.8-3.4c1.2-0.8,2.4-1.2,3.8-1.2c1,0,2,0.3,3.1,0.8l-2.4,6.5
	c-0.9-0.4-1.6-0.7-2.2-0.7c-1.2,0-2.1,0.7-3,2.2c-0.8,1.4-1.2,4.3-1.2,8.5l0,1.5v12.2h-7.5V282.6z"/>
<path class="st0" d="M453.5,288.7l-6.3,3.5c-1.2-1.2-2.4-2.1-3.5-2.6c-1.2-0.5-2.5-0.7-4.1-0.7c-2.8,0-5.1,0.8-6.9,2.5
	c-1.7,1.7-2.6,3.9-2.6,6.5c0,2.6,0.8,4.7,2.5,6.3c1.7,1.6,3.9,2.4,6.6,2.4c3.4,0,6-1.2,7.9-3.5l6,4.1c-3.2,4.2-7.8,6.3-13.7,6.3
	c-5.3,0-9.5-1.6-12.5-4.7c-3-3.1-4.5-6.8-4.5-11c0-2.9,0.7-5.6,2.2-8.1c1.5-2.5,3.5-4.4,6.1-5.8c2.6-1.4,5.5-2.1,8.8-2.1
	c3,0,5.7,0.6,8.1,1.8C450,284.8,451.9,286.5,453.5,288.7z"/>
<path class="st0" d="M457.5,282.6h6.5v3.8c0.7-1.5,1.6-2.6,2.8-3.4c1.2-0.8,2.4-1.2,3.8-1.2c1,0,2,0.3,3.1,0.8l-2.4,6.5
	c-0.9-0.4-1.6-0.7-2.2-0.7c-1.2,0-2.1,0.7-3,2.2c-0.8,1.4-1.2,4.3-1.2,8.5l0,1.5v12.2h-7.5V282.6z"/>
<path class="st0" d="M498.1,282.6h7.6v30.2h-7.6v-3.2c-1.5,1.4-3,2.4-4.4,3c-1.5,0.6-3.1,0.9-4.8,0.9c-3.9,0-7.3-1.5-10.1-4.5
	c-2.8-3-4.3-6.8-4.3-11.3c0-4.7,1.4-8.5,4.1-11.5c2.8-3,6.1-4.5,10-4.5c1.8,0,3.5,0.3,5.1,1c1.6,0.7,3.1,1.7,4.4,3.1V282.6z
	 M490.1,288.8c-2.3,0-4.3,0.8-5.8,2.5c-1.5,1.7-2.3,3.8-2.3,6.4c0,2.6,0.8,4.8,2.4,6.4c1.6,1.7,3.5,2.5,5.8,2.5
	c2.4,0,4.3-0.8,5.9-2.5c1.6-1.7,2.3-3.8,2.3-6.5c0-2.6-0.8-4.8-2.3-6.4C494.5,289.6,492.5,288.8,490.1,288.8z"/>
<path class="st0" d="M510.1,282.6h2.7c0-4,0.1-6.3,0.2-7c0.2-1.7,0.9-3,2.1-4c1.2-1,2.9-1.5,5.1-1.5c1.6,0,3.3,0.4,5.3,1.1v5.8
	c-1.1-0.3-2-0.5-2.7-0.5c-0.9,0-1.5,0.2-1.9,0.6c-0.3,0.3-0.4,0.9-0.4,1.7l0,3.8h4.8v6.4h-4.8v23.8h-7.6V289h-2.7V282.6z"/>
<path class="st0" d="M532.5,271.5h7.6v11.1h4.5v6.5H540v23.7h-7.6v-23.7h-3.9v-6.5h3.9V271.5z"/>
<path class="st1" d="M568.3,316.6l-13.7-45.1h17.6l29.4,46.1C601.6,317.6,568.3,318.6,568.3,316.6z"/>
</svg>
